<svg xmlns="http://www.w3.org/2000/svg" viewBox="0 0 40.12 58.18"><title>Ресурс 15</title><g id="Слой_2" data-name="Слой 2"><g id="Слой_1-2" data-name="Слой 1"><polygon points="40.12 0 29.07 0 21.87 10.27 27.41 18.17 40.12 0" fill="#94c400" fill-rule="evenodd"/><path d="M21.87,23.22V20.77H25.6L11.09,0H0L14.51,20.77h3.74v2.45A17.53,17.53,0,1,0,37.61,40.63,17.66,17.66,0,0,0,21.87,23.22ZM20.06,54.86A14.21,14.21,0,1,1,34.25,40.63,14.23,14.23,0,0,1,20.06,54.86Z" fill="#404349" fill-rule="evenodd"/><path d="M20.06,31.11a9.4,9.4,0,0,1,7.12,3.23l1.3-1.1a11.18,11.18,0,0,0-8.42-3.85,11,11,0,0,0-8.38,3.85l1.26,1.1a9.52,9.52,0,0,1,7.12-3.23Z" fill="#404349" fill-rule="evenodd"/><polygon points="22.1 38.35 20.06 34.26 18.05 38.35 13.53 39.02 16.8 42.2 16.01 46.73 20.06 44.6 24.11 46.73 23.32 42.2 26.63 39.02 22.1 38.35" fill="#404349" fill-rule="evenodd"/><path d="M20.06,50a3.12,3.12,0,0,0,2.2,1.49,3.18,3.18,0,0,0,2.67-.28A3.68,3.68,0,0,0,20.06,50Z" fill="#94c400" fill-rule="evenodd"/><path d="M23.13,49.32a3,3,0,0,0,2.56.71,3.14,3.14,0,0,0,2.44-1.14,3.7,3.7,0,0,0-5,.43Z" fill="#94c400" fill-rule="evenodd"/><path d="M25.8,47.75a3,3,0,0,0,2.67-.16,3.1,3.1,0,0,0,1.89-1.89,3.71,3.71,0,0,0-4.56,2Z" fill="#94c400" fill-rule="evenodd"/><path d="M27.81,45.39a3.11,3.11,0,0,0,2.48-1A3.16,3.16,0,0,0,31.47,42a3.71,3.71,0,0,0-3.66,3.42Z" fill="#94c400" fill-rule="evenodd"/><path d="M28.95,42.52a3.11,3.11,0,0,0,2-1.77,3.08,3.08,0,0,0,.35-2.67,3.71,3.71,0,0,0-2.36,4.44Z" fill="#94c400" fill-rule="evenodd"/><path d="M29.11,39.41a3.18,3.18,0,0,0,1.3-2.32,3.26,3.26,0,0,0-.51-2.64,3.65,3.65,0,0,0-.79,5Z" fill="#94c400" fill-rule="evenodd"/><path d="M15.18,51.17a3.18,3.18,0,0,0,2.67.28A3,3,0,0,0,20.06,50a3.7,3.7,0,0,0-4.88,1.22Z" fill="#94c400" fill-rule="evenodd"/><path d="M20.06,50.74a1.79,1.79,0,0,0-1.18,2.2,1.66,1.66,0,0,0,1-.9,2.22,2.22,0,0,0,.16-.47,2.41,2.41,0,0,0,.2.47,1.56,1.56,0,0,0,1,.9,1.85,1.85,0,0,0-1.22-2.2Z" fill="#94c400" fill-rule="evenodd"/><path d="M12,48.89A3.12,3.12,0,0,0,14.43,50a3.13,3.13,0,0,0,2.6-.71,3.7,3.7,0,0,0-5-.43Z" fill="#94c400" fill-rule="evenodd"/><path d="M14.36,47.75a3.75,3.75,0,0,0-4.6-2,3.26,3.26,0,0,0,1.93,1.89,3,3,0,0,0,2.67.16Z" fill="#94c400" fill-rule="evenodd"/><path d="M12.31,45.39A3.66,3.66,0,0,0,8.65,42a3.16,3.16,0,0,0,1.18,2.4,3.21,3.21,0,0,0,2.48,1Z" fill="#94c400" fill-rule="evenodd"/><path d="M11.17,42.52a3.68,3.68,0,0,0-2.36-4.44,3.37,3.37,0,0,0,.35,2.67,3.2,3.2,0,0,0,2,1.77Z" fill="#94c400" fill-rule="evenodd"/><path d="M11.05,39.41a3.73,3.73,0,0,0-.79-5,3.13,3.13,0,0,0-.55,2.64,3.1,3.1,0,0,0,1.34,2.32Z" fill="#94c400" fill-rule="evenodd"/></g></g></svg>