<svg xmlns="http://www.w3.org/2000/svg" viewBox="0 0 71.62 58.19"><title>Ресурс 13</title><g id="Слой_2" data-name="Слой 2"><g id="Слой_1-2" data-name="Слой 1"><path d="M28.74,42.21V33.47H26.21v3.08c0,4.44-1.08,5.66-3.28,5.66h-.82V40.37h.3c1.06,0,1.81-.62,1.81-3.94v-4.8H30.8V42.21Z" fill="#404349"/><path d="M33.69,42.21V31.63h7v1.84h-4.9V36h4.18V37.8H35.76v2.57h4.9v1.84Z" fill="#404349"/><path d="M46.23,33.47v8.74H44.17V33.47H41.4V31.63H49v1.84Z" fill="#404349"/><path d="M35.83,48.82c1.69,2.79,3.78,4,6.92,4.76s5.55.75,8.34-.94a11.57,11.57,0,0,0-15.26-3.82Z" fill="#94c400"/><path d="M45.39,46.9c2.52,2.12,4.84,2.56,8.1,2.24S59,48,61.08,45.52A11.57,11.57,0,0,0,45.39,46.9Z" fill="#94c400"/><path d="M53.77,42c3.07,1.18,5.43.83,8.42-.51s4.8-2.87,6-5.9A11.57,11.57,0,0,0,53.77,42Z" fill="#94c400"/><path d="M60.1,34.59c3.3.08,5.43-1,7.79-3.23s3.62-4.25,3.74-7.55A11.62,11.62,0,0,0,60.1,34.59Z" fill="#94c400"/><path d="M63.72,25.5c3.11-.94,4.76-2.67,6.29-5.55s2-5.23,1.06-8.38A11.6,11.6,0,0,0,63.72,25.5Z" fill="#94c400"/><path d="M64.15,15.79c2.64-2,3.62-4.13,4.13-7.35s.24-5.59-1.69-8.22a11.59,11.59,0,0,0-2.44,15.58Z" fill="#94c400"/><path d="M20.53,52.64c2.79,1.69,5.19,1.73,8.34.94s5.23-2,7-4.76a11.61,11.61,0,0,0-15.3,3.82Z" fill="#94c400"/><path d="M35.83,51.3a5.74,5.74,0,0,0-3.78,6.88,5,5,0,0,0,3.19-2.75,7.06,7.06,0,0,0,.59-1.57,6.85,6.85,0,0,0,.55,1.57,5,5,0,0,0,3.19,2.75,5.75,5.75,0,0,0-3.74-6.88Z" fill="#94c400"/><path d="M10.58,45.52c2.08,2.52,4.33,3.34,7.59,3.62s5.55-.12,8.06-2.24a11.52,11.52,0,0,0-15.65-1.38Z" fill="#94c400"/><path d="M17.86,42a11.57,11.57,0,0,0-14.4-6.41c1.18,3,3,4.56,6,5.9s5.35,1.65,8.42.51Z" fill="#94c400"/><path d="M11.52,34.59A11.59,11.59,0,0,0,0,23.81c.12,3.3,1.38,5.35,3.74,7.55s4.48,3.3,7.79,3.23Z" fill="#94c400"/><path d="M7.91,25.5A11.6,11.6,0,0,0,.55,11.58C-.39,14.72.12,17,1.61,20s3.19,4.6,6.29,5.55Z" fill="#94c400"/><path d="M7.47,15.79A11.55,11.55,0,0,0,5,.21c-1.93,2.64-2.2,5-1.69,8.26s1.49,5.35,4.13,7.32Z" fill="#94c400"/><path d="M26.81,29.49V5.8l-6,5.22V5.22l6-5.22h5.38V29.49Z" fill="#404349"/><path d="M40.6,29.49V5.8L34.6,11V5.22L40.6,0H46V29.49Z" fill="#404349"/><path d="M55.1,17.75l-5,.08a1,1,0,0,0-1.06,1.1v2.44l3.7-.12c.59,0,.75-.59,1-1.1Z" fill="#404349"/><path d="M17.27,17.75l5,.08a1,1,0,0,1,1.06,1.1v2.44l-3.74-.12c-.59,0-.75-.59-1-1.1Z" fill="#404349"/><path d="M58,12.64l-7.87,0a1,1,0,0,0-1.06,1.1v2.48l6.61-.12c.63,0,.79-.59,1.06-1.1Z" fill="#404349"/><path d="M14.36,12.64l7.91,0a1,1,0,0,1,1.06,1.1v2.48l-6.65-.12c-.59,0-.75-.59-1-1.1Z" fill="#404349"/></g></g></svg>