<?xml version="1.0" encoding="utf-8"?>
<!-- Generator: Adobe Illustrator 21.1.0, SVG Export Plug-In . SVG Version: 6.00 Build 0)  -->
<svg version="1.1" id="Слой_1" xmlns="http://www.w3.org/2000/svg" xmlns:xlink="http://www.w3.org/1999/xlink" x="0px" y="0px"
	 viewBox="0 0 282 71.2" style="enable-background:new 0 0 282 71.2;" xml:space="preserve">
<style type="text/css">
	.st0{fill:#323A42;}
	.st1{fill:url(#SVGID_1_);}
	.st2{fill:url(#SVGID_2_);}
	.st3{fill:url(#SVGID_3_);}
	.st4{fill:url(#SVGID_4_);}
	.st5{fill:url(#SVGID_5_);}
	.st6{fill:url(#SVGID_6_);}
</style>
<path class="st0" d="M200.4,27.8c3.3,0.6,6.5,1.2,9.6,2c2.2,0.5,4.7,1.7,6.4,3.5c3.5,4.2,2.4,12.7-2,15.6c-2.6,1.8-6.1,2.2-10.1,2.2
	h-27.6c-8.1,0-13.8-3.8-14.2-12.2h7.5c0.2,2.7,1.2,4.1,4.3,4.5c0.5,0.1,0.9,0.1,1.4,0.1h29.1c0.4,0,0.7,0,1.1,0
	c1.4-0.1,2.7-0.2,3.5-0.9c1.7-1.5,1.7-4.6-1.1-5.6c-1.2-0.4-6.4-1.3-12.3-2.3c-5.8-1-11.7-2-17.5-3.1c-2.6-0.5-5-1-7.5-1.6
	c-2.3-0.5-4.7-1.7-6.4-3.5c-3.5-4.2-2.5-12.8,2-15.6c2.6-1.8,6.1-2.2,10.1-2.2h27.6c8.1,0,13.8,3.8,14.2,12.2H211
	c-0.2-2.7-1.2-4.1-4.3-4.5c-0.5-0.1-1-0.1-1.4-0.1h-29.1c-0.4,0-0.7,0-1.1,0c-1.4,0-2.7,0.2-3.5,0.9c-1.7,1.5-1.7,4.6,1.1,5.6
	c0.8,0.3,3.7,0.9,7.4,1.5C186.9,25.4,193.7,26.5,200.4,27.8z"/>
<path class="st0" d="M256.2,26.5H276c1.6,0,2.9,0.6,4,1.7s1.7,2.5,1.6,4V38c-0.6,9.6-4.6,12.7-15.5,12.7h-26c-11,0-15.8-4-15.8-14.8
	V24.3c0-11.1,4.7-15.7,15.8-15.7h26c8.3,0,15.1,2.9,15.5,12v0.5H274c-0.4-4.1-2.4-5-7.9-5h-26c-8.5,0-8.3,2.8-8.4,10.5
	c-0.1,3.8-0.1,10.3,0.2,12.4c0.7,4.3,3.9,4.5,8,4.5h26c8.1,0,8-0.9,8-9.4c-5,0-9.9,0-14.9,0l-3.7-7.4h0.9V26.5z"/>
<path class="st0" d="M122.5,16l-9.4,18.2h18.7L122.5,16z M109.4,40.9l-4.6,9.1l-0.4,0.8h-0.9H99h-2.3l1-2l20.4-39.2l0.4-0.7h0.8h6.2
	h0.8l0.4,0.7L147,48.8l1,2h-2h-4.7h-0.9L140,50l-4.7-9.1H109.4z"/>
<linearGradient id="SVGID_1_" gradientUnits="userSpaceOnUse" x1="57020.168" y1="25204.2461" x2="57299.668" y2="24757.1465" gradientTransform="matrix(2.834646e-02 0 0 2.834646e-02 -1475.9418 -676.2181)">
	<stop  offset="0" style="stop-color:#009846"/>
	<stop  offset="1" style="stop-color:#78B833"/>
</linearGradient>
<path class="st1" d="M152.4,50l0.4,0.8h0.9h4.5h2.3l-1-2L139,9.5l-0.4-0.7h-0.9h-6.2h-0.7C138,22.6,145.4,36.2,152.4,50z"/>
<linearGradient id="SVGID_2_" gradientUnits="userSpaceOnUse" x1="61070.6992" y1="24974.2617" x2="60824.0977" y2="24914.0625" gradientTransform="matrix(2.834646e-02 0 0 2.834646e-02 -1475.9418 -676.2181)">
	<stop  offset="0" style="stop-color:#009846"/>
	<stop  offset="1" style="stop-color:#78B833"/>
</linearGradient>
<path class="st2" d="M251.5,26.7l3.8,7.3H247l-4-7.5c2.8,0,5.6,0,8.4,0L251.5,26.7z"/>
<path class="st0" d="M92.8,67.4l1.4-2.8h6.6l1.4,2.8h3.1l-5.9-11.1h-3.9l-5.9,11.1H92.8z M95.3,62.5l2.2-4.1h0.1l2.1,4.1H95.3z
	 M107.8,56.3v11.1h2.7v-8.9h6.9v-2.2H107.8z M122.7,64.1h5c2.7,0,3.9-1.1,3.9-3.9s-1.1-3.9-3.9-3.9h-7.6v11.1h2.7v-3.3H122.7z
	 M122.7,58.5h4.5c1.4,0,1.7,0.6,1.7,1.7c0,1.2-0.4,1.7-1.7,1.7h-4.5V58.5z M136.7,63.3v-3c0-1.6,0.5-2,2.1-2h3.5
	c1.6,0,2.1,0.4,2.1,2v3c0,1.5-0.4,1.9-2.1,1.9h-3.5C137.1,65.2,136.7,64.8,136.7,63.3z M147,63.6v-3.5c0-3.1-1.3-4-4-4h-4.9
	c-3,0-4.1,0.9-4.1,4v3.5c0,2.7,1.1,3.8,4.1,3.8h4.9C146.1,67.4,147,66.3,147,63.6z M160.4,63.5c0,1.3-0.5,1.6-2.1,1.6h-3.4
	c-1.5,0-2.1-0.3-2.1-2v-2.7c0-1.8,0.4-2.1,2.1-2.1h3.4c1.5,0,2.1,0.5,2.1,1.7h2.7c0-3.1-1.6-3.9-4.3-3.9h-4.4
	c-3.3,0-4.3,0.9-4.3,4.2v3.2c0,3,1,3.9,4.1,3.9h5c3.3,0,4-0.9,4-3.9L160.4,63.5L160.4,63.5z M168.7,56.3H166v11.1h4.6l6.7-8.9h0.4
	v8.9h2.7V56.3h-4.5l-6.8,8.9h-0.4L168.7,56.3L168.7,56.3z M183.8,56.3v11.1h7.6c2.6,0,4-0.7,4-3.5c0-2.9-1.4-3.5-4-3.5h-4.9v-2h7.8
	v-2.1H183.8z M186.4,62.6h4.7c1.4,0,1.5,0.4,1.5,1.3c0,1-0.2,1.3-1.6,1.3h-4.6V62.6z M198.7,56.3v11.1h2.7v-8.9h6.9v-2.2H198.7z
	 M210.2,67.4l1.4-2.8h6.6l1.4,2.8h3.1l-5.8-11.1h-4L207,67.4H210.2z M212.7,62.5l2.2-4.1h0.1l2.1,4.1H212.7z M227.7,64.1h5
	c2.7,0,3.9-1.1,3.9-3.9s-1.1-3.9-3.9-3.9H225v11.1h2.7V64.1z M227.7,58.5h4.5c1.4,0,1.7,0.6,1.7,1.7c0,1.2-0.4,1.7-1.7,1.7h-4.5
	V58.5z M240.2,67.4l1.4-2.8h6.6l1.4,2.8h3.1l-5.8-11.1h-4L237,67.4H240.2z M242.7,62.5l2.2-4.1h0.1l2.1,4.1H242.7z M257.6,56.3H255
	v11.1h2.7v-4.7h6.9v4.7h2.7V56.3h-2.7v4.3h-6.9v-4.3H257.6z M270,56.3v2.2h4.6v8.9h2.7v-8.9h4.7v-2.2H270z"/>
<linearGradient id="SVGID_3_" gradientUnits="userSpaceOnUse" x1="54174.9258" y1="25928.582" x2="54072.0977" y2="25607.082" gradientTransform="matrix(2.834646e-02 0 0 2.834646e-02 -1475.9418 -676.2181)">
	<stop  offset="0" style="stop-color:#009846"/>
	<stop  offset="1" style="stop-color:#78B833"/>
</linearGradient>
<polygon class="st3" points="42.1,39.4 29.9,44.3 71.9,61.3 84.2,56.5 "/>
<linearGradient id="SVGID_4_" gradientUnits="userSpaceOnUse" x1="54174.9258" y1="25928.582" x2="54072.0977" y2="25607.082" gradientTransform="matrix(2.834646e-02 0 0 2.834646e-02 -1475.9418 -676.2181)">
	<stop  offset="0" style="stop-color:#009846"/>
	<stop  offset="1" style="stop-color:#78B833"/>
</linearGradient>
<polygon class="st4" points="42.1,39.4 29.9,44.3 71.9,61.3 84.2,56.5 "/>
<polygon class="st0" points="67.3,39.8 42.1,29.6 0,46.6 0,36.8 42.1,19.7 42.1,19.7 42.1,19.7 42.1,19.7 42.1,19.7 67.4,29.9 "/>
<polygon class="st0" points="75.8,23.5 42.1,9.8 0,26.9 0,17 42.1,0 42.1,0 42.1,0 42.1,0 42.1,0 84.2,17 84.2,18.4 84.2,26.9 
	84.2,46.6 75.8,43.2 "/>
<linearGradient id="SVGID_5_" gradientUnits="userSpaceOnUse" x1="53309.0547" y1="26276.3633" x2="53205.9844" y2="25954.4629" gradientTransform="matrix(2.834646e-02 0 0 2.834646e-02 -1475.9418 -676.2181)">
	<stop  offset="0" style="stop-color:#009846"/>
	<stop  offset="1" style="stop-color:#78B833"/>
</linearGradient>
<polygon class="st5" points="17.5,49.2 5.4,54.2 47.4,71.2 59.6,66.3 "/>
<linearGradient id="SVGID_6_" gradientUnits="userSpaceOnUse" x1="53309.0547" y1="26276.3633" x2="53205.9844" y2="25954.4629" gradientTransform="matrix(2.834646e-02 0 0 2.834646e-02 -1475.9418 -676.2181)">
	<stop  offset="0" style="stop-color:#009846"/>
	<stop  offset="1" style="stop-color:#78B833"/>
</linearGradient>
<polygon class="st6" points="17.5,49.2 5.4,54.2 47.4,71.2 59.6,66.3 "/>
</svg>
